<svg width="48" height="48" viewBox="0 0 48 48" fill="none" xmlns="http://www.w3.org/2000/svg">
<path d="M24 0L25.5752 12.5397L30.4751 0.889986L28.6087 13.3897L36.47 3.49393L31.3004 15.0266L41.5401 7.61872L33.4507 17.329L45.3092 12.9584L34.9001 20.1261L47.498 19.1171L35.541 23.2106L47.944 25.6378L35.326 26.3536L46.6143 32.0371L34.2711 29.322L43.6073 37.8403L32.4543 31.8958L39.1461 42.6171L30.0105 33.8839L33.5616 46.0131L27.121 35.139L27.268 47.7765L24 35.568L20.732 47.7765L20.879 35.139L14.4384 46.0131L17.9895 33.8839L8.85389 42.6171L15.5457 31.8958L4.39272 37.8403L13.7289 29.322L1.38574 32.0371L12.674 26.3536L0.0559502 25.6378L12.459 23.2106L0.501982 19.1171L13.0999 20.1261L2.69075 12.9584L14.5493 17.329L6.45994 7.61872L16.6996 15.0266L11.53 3.49393L19.3913 13.3897L17.5249 0.889986L22.4248 12.5397L24 0Z" fill="#FFA600"/>
</svg>
